<?xml version="1.0" encoding="utf-8"?>
<!-- Generator: Adobe Illustrator 28.0.0, SVG Export Plug-In . SVG Version: 6.00 Build 0)  -->
<svg version="1.1" id="Layer_1" xmlns="http://www.w3.org/2000/svg" xmlns:xlink="http://www.w3.org/1999/xlink" x="0px" y="0px"
	 viewBox="0 0 424 424" style="enable-background:new 0 0 424 424;" xml:space="preserve">
<style type="text/css">
	.st0{fill-rule:evenodd;clip-rule:evenodd;fill:url(#SVGID_1_);}
	.st1{fill-rule:evenodd;clip-rule:evenodd;}
</style>
<linearGradient id="SVGID_1_" gradientUnits="userSpaceOnUse" x1="45.0274" y1="217.9807" x2="166.6071" y2="220.9597" gradientTransform="matrix(1 0 0 -1 0 426)">
	<stop  offset="0" style="stop-color:#23EE88"/>
	<stop  offset="0.9888" style="stop-color:#9FE871"/>
</linearGradient>
<path fill="#fff" class="st0" d="M51.4,182c-0.2-10.6-3.9-14-15.1-14h-3.9c-2.6,0-2.7,0.4-1.8,2.6c0.7,1.8,0.8,3.2,0.8,5.3l0,38.1
	c0.1,15.8,2.2,19.4,16.7,27.5c7.4,4.2,11.8,6.3,16.4,6.3c4.6,0,9-2.1,16.4-6.3c14.9-8.4,16.7-11.9,16.7-28.9s-1.9-20.3-16.2-28.6
	c-6.9-4-11.7-6.1-16.3-6.3l-0.6,0l-0.6,0C60.1,178,56.3,179.4,51.4,182z M66.5,191.4c-11.8,0-21.4,9.6-21.4,21.4
	c0,11.8,9.6,21.4,21.4,21.4c5.6,0,11.1-2.8,14.9-6.4c0.2-0.2,0.4-0.7,0.1-1c-1.8-1.8-8.7-8.2-12.3-11.5c-1.3-1.2-2.1-2-2.2-2
	c-0.3-0.3-0.3-0.7,0-1.1c2-2.1,9.4-9.1,12.7-12.2c0.9-0.9,1.5-1.5,1.6-1.5c0.4-0.4,0.2-0.8,0-1C77.5,194.1,72,191.4,66.5,191.4z"/>
<path fill="#fff" class="st1" d="M63,206.5c0,1.9-1.5,3.4-3.4,3.4c-1.9,0-3.4-1.5-3.4-3.4c0-1.9,1.5-3.4,3.4-3.4C61.5,203.1,63,204.6,63,206.5z"
	/>
<path fill="#fff" class="st1" d="M142.8,223.7c-0.9,0.9-2.4,1.4-4.3,1.4H131v-11.4h7.7c1.9,0,3.3,0.6,4.1,1.5c0.8,0.9,1.2,2.5,1.2,4.3
	C144.1,221.1,143.7,222.7,142.8,223.7z M131,195.7h5.2c2.5,0,3.9,0.4,4.9,1.3c0.9,0.8,1.4,2.3,1.4,4.1c0,1.6-0.5,2.9-1.4,3.7
	c-1.2,1.1-2.4,1.4-4.7,1.4H131V195.7z M147.9,209.7c1.9-0.8,3.5-2.2,4.4-3.7c1.2-1.8,1.8-3.9,1.8-6.2c0-4.5-1.5-7.9-4.6-10.1
	c-3.2-2.3-6.5-3.3-13-3.6c-6.3-0.3-16.6,1.1-16.6,1.1v46.9c0,0,12,0.6,19.5,0.1c6.4-0.4,9.3-1.4,11.8-3.5c2.8-2.4,4.3-6.3,4.3-11.1
	c0-2.5-0.6-4.5-1.9-6.4C152.8,211.6,150.5,210.1,147.9,209.7z M277.4,214l4.2-13.1l4.3,13.1L277.4,214z M276.2,187.3l-17.2,46
	l11.8,0.1l3.5-9.9l13.9,0l3.7,9.9h11.9l-16.6-46.1H276.2z M371.1,214.4l-0.1,8.8h19v10h-30.1V205v-17.8h29.6v10H371l0.1,8.3h16.8
	v8.8L371.1,214.4z M188.4,224c-3.6,0.7-8.7,1.5-12.4-0.7c-3.5-2-5-6-5.3-8.9c-0.3-2.4-0.3-6.2,0-8.3c0.4-3.3,1.9-7,5.3-9
	c3.8-2.2,8.9-1.4,12.4-0.7c2.3,0.5,6.9,1.9,6.9,1.9l0.1-8.9c0,0-3.7-2-10-2.7c-6-0.7-13.9-0.1-19.1,4.5c-5.2,4.6-6.4,10.3-6.9,14.7
	c-0.3,2.6-0.3,6.6,0,9c0.5,3.9,1.7,10,6.9,14.7c5.2,4.6,13.1,5.3,19.1,4.5c6.4-0.8,10.6-3,10.6-3l-0.1-9.3
	C195.8,221.6,190.7,223.5,188.4,224z M209.7,234.2c3,0,5.5-2.5,5.5-5.5s-2.5-5.5-5.5-5.5c-3,0-5.5,2.5-5.5,5.5
	S206.7,234.2,209.7,234.2z M354.3,233.3l-0.6-46.1h-13.1l-10,26.7l-10.6-26.7H307c0,0-0.1,0-0.1,0.1v46c0,0,0,0,0,0c0,0,0,0,0,0h11
	l0-28.2l10.3,24l4.6,0l10.3-24.8v29H354.3z M248.2,210.4h8.8v10.3l0,0v9.3c-2,1.3-4.8,2.8-9.9,3.7c-4.6,0.9-13.4,1.2-19.2-3
	c-6.3-4.5-7.9-11.2-8.3-15.4c-0.2-3-0.3-6,0-9.3c0.3-4,1.7-10.2,6.9-14.9c5.2-4.7,13.1-5.3,19.1-4.6c6.4,0.8,10,2.8,10,2.8l-0.1,9.1
	c0,0-4.6-1.4-6.9-1.9c-3.6-0.7-8.7-1.5-12.4,0.7c-3.5,2-5.1,6.3-5.3,9.1c-0.2,2.8-0.2,5.9,0,8.2c0.3,3.8,2,6.7,4.6,8.6
	c2.6,1.8,7.7,1.9,11.6,0.5c0,0-0.1-7.4-0.1-9c0-0.8-0.2-1.4-0.3-2c-0.1-0.3-0.2-0.6-0.2-0.9C246.3,210.7,246.6,210.4,248.2,210.4z"
	/>
</svg>
